M48
;DRILL file {KiCad 4.0.2-stable} date 9/7/2016 12:37:08 AM
;FORMAT={-:-/ absolute / inch / decimal}
FMAT,2
INCH,TZ
T1C0.016
T2C0.040
%
G90
G05
M72
T1
X5.5807Y-4.9409
X5.6496Y-4.5768
X5.6693Y-4.8425
X5.7992Y-5.2854
X5.8465Y-4.9114
X5.8465Y-5.2854
X5.8879Y-5.3334
X5.935Y-4.8819
X6.0039Y-4.7835
X6.0138Y-4.6654
X6.0138Y-4.7244
X6.1122Y-5.4331
X6.1319Y-4.9409
X6.1614Y-4.5669
X6.1614Y-4.685
X6.1614Y-4.8031
T2
X5.6138Y-4.3996
X5.7138Y-4.3996
X5.8138Y-4.3996
X5.9138Y-4.3996
X6.0138Y-4.3996
X6.1138Y-4.3996
T0
M30
